<svg width="179" height="98" viewBox="0 0 179 98" fill="none" xmlns="http://www.w3.org/2000/svg">
<path d="M22.6 97.1C22.4 97.1 22.3 97.05 22.3 96.95C22.3 96.85 22.7 96.4 23.5 95.6C28.3 92 33.05 87.45 37.75 81.95C42.55 76.35 47 70.3 51.1 63.8C55.2 57.2 58.7 50.45 61.6 43.55C64.6 36.65 66.7 30.05 67.9 23.75C68.2 22.45 68.4 21.2 68.5 20C68.6 18.8 68.65 17.65 68.65 16.55C68.65 12.55 67.8 9.4 66.1 7.1C64.4 4.69999 61.75 3.49999 58.15 3.49999C53.75 3.6 49.25 4.85 44.65 7.25C40.05 9.55 35.65 12.65 31.45 16.55C27.25 20.45 23.35 24.85 19.75 29.75C16.25 34.55 13.3 39.55 10.9 44.75C8.5 49.95 6.9 54.95 6.1 59.75C5.9 60.95 5.75 62.1 5.65 63.2C5.55 64.2 5.5 65.1 5.5 65.9C5.5 69.3 6.15 71.65 7.45 72.95C8.85 74.15 10.65 74.75 12.85 74.75C16.05 74.75 19.6 73.75 23.5 71.75C27.5 69.75 31.5 66.95 35.5 63.35C39.6 59.75 43.35 55.6 46.75 50.9C50.15 46.1 52.9 40.95 55 35.45C57.1 29.85 58.2 24.1 58.3 18.2C58.3 17.4 58.45 17 58.75 17C59.05 17 59.4 17.35 59.8 18.05C60.2 18.75 60.4 19.5 60.4 20.3C60.4 25.3 59.4 30.5 57.4 35.9C55.5 41.2 52.85 46.35 49.45 51.35C46.15 56.35 42.45 60.85 38.35 64.85C34.25 68.75 30 71.9 25.6 74.3C21.2 76.6 17 77.75 13 77.75C9.5 77.75 6.55 76.6 4.15 74.3C1.85 71.9 0.7 68.35 0.7 63.65C0.7 62.85 0.8 62 1 61.1C1.1 60.1 1.2 59.1 1.3 58.1C2.1 53.3 3.8 48.3 6.4 43.1C9.1 37.8 12.4 32.7 16.3 27.8C20.2 22.9 24.5 18.5 29.2 14.6C34 10.6 38.9 7.45 43.9 5.15C48.9 2.75 53.75 1.55 58.45 1.55C64.15 1.55 68.45 3.15 71.35 6.35C74.25 9.54999 75.7 13.8 75.7 19.1C75.7 20.1 75.65 21.1 75.55 22.1C75.45 23.1 75.3 24.15 75.1 25.25C73.5 33.55 70.75 41.65 66.85 49.55C63.05 57.45 58.4 64.8 52.9 71.6C57.2 67.1 61.55 62.3 65.95 57.2C70.35 52.1 74.55 47.1 78.55 42.2C82.65 37.3 86.25 32.9 89.35 29C93.35 24.1 96.7 20.45 99.4 18.05C102.2 15.55 104.6 14.3 106.6 14.3C108.7 14.3 109.75 15.4 109.75 17.6C109.75 19.4 109.15 21.65 107.95 24.35C106.85 26.95 105.65 29.35 104.35 31.55C103.15 33.75 102.35 35.2 101.95 35.9C100.85 37.9 99.25 40.75 97.15 44.45C95.05 48.05 92.65 52.05 89.95 56.45C87.35 60.75 84.55 65.1 81.55 69.5C78.55 73.9 75.6 77.85 72.7 81.35C77.2 77.25 82.25 72.3 87.85 66.5C93.45 60.6 98.95 54.5 104.35 48.2C108.75 43 113.6 37.65 118.9 32.15C124.2 26.55 129.6 21.35 135.1 16.55C140.7 11.75 146.1 7.9 151.3 5C156.6 2 161.5 0.499995 166 0.499995C168 0.499995 170 0.799994 172 1.39999C174 1.89999 175.65 2.89999 176.95 4.4C178.25 5.8 178.9 7.8 178.9 10.4C178.9 11.7 178.45 13.1 177.55 14.6C176.75 16 175.65 16.85 174.25 17.15C174.75 16.65 175.15 15.85 175.45 14.75C175.75 13.65 175.9 12.7 175.9 11.9C175.9 7.5 172.5 5.3 165.7 5.3C161.3 5.3 156.5 6.7 151.3 9.5C146.2 12.3 140.95 16 135.55 20.6C130.25 25.2 125.05 30.15 119.95 35.45C114.85 40.65 110.15 45.75 105.85 50.75C100.45 56.95 95 62.95 89.5 68.75C84 74.45 78.9 79.3 74.2 83.3C69.5 87.3 65.6 89.9 62.5 91.1C61.9 91.5 61.3 91.8 60.7 92C60.1 92.3 59.55 92.45 59.05 92.45H58.9C58.1 92.45 57.7 92.1 57.7 91.4C57.7 90.9 57.8 90.4 58 89.9C58.3 89.4 58.65 88.85 59.05 88.25C61.95 84.15 65 79.8 68.2 75.2C71.5 70.6 74.8 66 78.1 61.4C82.8 54.8 87.35 48.05 91.75 41.15C96.15 34.25 100.05 27.45 103.45 20.75C104.05 19.75 104.35 18.85 104.35 18.05C104.35 17.55 104.15 17.3 103.75 17.3C103.15 17.3 102.3 17.7 101.2 18.5C99.9 19.7 98.15 21.65 95.95 24.35C93.75 27.05 91.6 29.7 89.5 32.3C86.1 36.4 82.3 40.95 78.1 45.95C74 50.95 69.65 56 65.05 61.1C60.55 66.2 56.05 71 51.55 75.5C47.15 79.9 42.95 83.55 38.95 86.45C38.25 87.15 37.5 87.85 36.7 88.55C35.9 89.15 35.1 89.8 34.3 90.5C32.1 92.3 29.8 93.85 27.4 95.15C25 96.45 23.4 97.1 22.6 97.1Z" fill="black"/>
</svg>
